<svg width="2457" height="636" viewBox="0 0 2457 636" fill="none" xmlns="http://www.w3.org/2000/svg">
<path d="M2432.8 354.7C2422.7 400.9 2370.1 427.3 2322.9 424.4C2275.8 421.6 2233 397 2192.2 373.3C2151.3 349.6 2108.2 325.5 2061 323.6C2007.9 321.5 1958.2 347.9 1906.3 359.2C1742.5 394.7 1566.9 279.4 1409.8 337.6C1327.8 367.9 1269.7 439.5 1210.5 503.7C1151.2 568 1079 631.3 991.7 635.4C889.9 640.2 796.5 562.6 695.1 572.2C639.3 577.5 588.9 608.9 533.5 616.9C440 630.4 351.8 576.9 268.8 531.9C185.9 486.8 84.6 448.1 0 490V0H2456.9L2432.8 354.7Z" fill="#D6C1B1"/>
</svg>
