<svg width="216" height="163" viewBox="0 0 216 163" fill="none" xmlns="http://www.w3.org/2000/svg">
<path d="M143.899 93.3478H143.831H143.899ZM49.3686 123.225C49.7988 123.287 52.1536 123.389 52.1536 123.02C52.1536 122.805 51.7234 122.815 51.7234 122.815C51.78 121.177 54.0781 120.767 55.7197 121.627C56.1721 121.863 56.5904 122.148 56.965 122.477C54.6442 122.59 51.5649 124.024 51.7686 126.103C51.8856 126.645 52.1369 127.156 52.5035 127.599C52.8703 128.04 53.3427 128.401 53.8857 128.654C54.5643 129.113 55.3372 129.446 56.1593 129.632C56.9815 129.819 57.8365 129.854 58.6745 129.739C60.1668 129.395 61.4798 128.591 62.3877 127.465C64.4397 127.524 66.4473 126.917 68.0483 125.755C68.1158 125.706 68.1718 125.646 68.2125 125.577C68.2535 125.508 68.2784 125.433 68.286 125.355C68.286 124.997 68.286 125.017 66.0218 122.744C65.9576 122.679 65.8773 122.629 65.7876 122.599C65.6976 122.568 65.6011 122.557 65.5056 122.567C65.4103 122.576 65.3189 122.607 65.2392 122.656C65.1598 122.704 65.0941 122.77 65.0482 122.846C65.0091 122.89 64.9749 122.939 64.9463 122.989C64.7664 123.295 64.4758 123.535 64.1232 123.67C63.7706 123.804 63.3776 123.824 63.0104 123.727C61.8783 123.43 60.4179 120.716 57.7575 119.097C55.4367 117.684 52.3234 117.264 50.1271 118.944C49.1817 119.678 48.5096 120.658 48.2025 121.75C48.0803 122.087 48.1046 122.453 48.2705 122.774C48.5679 123.035 48.9559 123.194 49.3686 123.225ZM53.6253 127.025C53.3149 126.824 53.0994 126.526 53.0218 126.188C52.9442 125.85 53.01 125.498 53.2064 125.202C53.7084 124.574 54.406 124.096 55.2102 123.829C54.5614 124.825 54.0302 125.878 53.6253 126.974V127.025ZM64.2897 125.407C64.5614 124.669 64.2897 124.925 64.7425 124.741C65.0854 124.586 65.3958 124.378 65.6595 124.126L66.6897 125.233C65.8365 125.722 64.8932 126.069 63.9048 126.257C64.018 125.991 64.1991 125.581 64.2897 125.355V125.407ZM60.1915 122.795C61.267 124.014 62.1613 125.099 63.8029 124.977C63.5686 125.418 63.3791 125.877 63.2368 126.349C62.4104 126.4 62.2972 126.226 61.9689 126.349C61.3236 126.574 60.2594 128.674 57.6782 128.664C57.8388 128.338 57.9419 127.993 57.9839 127.64C58.7142 127.506 59.398 127.214 59.9764 126.789C60.2242 126.595 60.3852 126.326 60.4292 126.031C60.4292 125.673 60.2934 125.212 59.4556 124.608C59.7677 124.009 60.014 123.385 60.1915 122.744V122.795ZM56.3876 126.667C55.3914 126.185 57.0895 125.335 58.1877 125.366C58.4398 125.367 58.6866 125.434 58.8988 125.557C59.1112 125.68 59.2807 125.856 59.3877 126.062C59.2364 126.282 59.0369 126.473 58.8017 126.62C58.5664 126.769 58.3002 126.872 58.0193 126.923C57.7385 126.975 57.4489 126.975 57.1684 126.922C56.8876 126.869 56.6221 126.765 56.3876 126.615V126.667ZM57.7235 120.398C58.4921 120.99 59.1903 121.652 59.8066 122.375C59.4482 122.965 59.1744 123.595 58.9915 124.249C58.5156 124.125 58.0168 124.092 57.5261 124.15C57.0354 124.208 56.563 124.357 56.1386 124.587C54.0668 125.612 54.5536 127.855 57.4291 127.599C57.2602 127.893 57.1344 128.206 57.0556 128.531C55.9074 128.323 54.834 127.862 53.931 127.189C54.7333 126.061 55.3582 124.836 55.7876 123.553C56.2277 123.37 56.7038 123.268 57.1879 123.254C57.672 123.24 58.1543 123.314 58.6065 123.471L58.8443 122.662L58.5952 122.559C58.0631 122.232 57.8254 121.975 57.2141 121.535C57.4409 121.161 57.6121 120.762 57.7235 120.347V120.398ZM53.3309 118.759C54.7477 118.782 56.1194 119.213 57.248 119.988C57.0453 120.406 56.8934 120.842 56.7952 121.289C56.2526 120.904 55.6122 120.646 54.9324 120.542C54.2525 120.436 53.5543 120.485 52.9007 120.685C53.1395 120.063 53.2842 119.416 53.3309 118.759ZM50.7384 119.558C51.366 119.116 52.1202 118.846 52.9121 118.78C52.5607 119.468 52.3425 120.206 52.2668 120.961C51.9294 121.144 51.6534 121.407 51.4679 121.721C51.2825 122.034 51.1946 122.388 51.2139 122.744C50.4206 122.783 49.6269 122.675 48.8818 122.426C49.0502 121.288 49.7095 120.257 50.7158 119.558H50.7384ZM33.8248 117.848C31.7871 117.049 27.2587 119.415 26.4322 120.685C26.3126 120.965 26.3126 121.275 26.4322 121.556C27.1454 124.003 33.8022 132.648 35.0362 133.99C35.2513 134.236 35.5456 133.898 35.3532 133.611C34.7645 132.73 34.8324 134.502 37.8438 125.683C38.1227 125.584 38.3825 125.446 38.6136 125.274C38.7186 125.168 38.7767 125.031 38.7767 124.889C38.7767 124.748 38.7186 124.61 38.6136 124.505C38.5107 124.39 38.393 124.287 38.2627 124.198L38.9759 121.812L41.8062 123.225C41.2337 124.519 40.8163 125.865 40.5608 127.24C39.4193 127.612 38.3495 128.145 37.391 128.817C36.723 129.483 37.7759 130.712 38.4325 131.45C39.0891 132.187 39.6438 132.689 39.7684 132.802C39.8929 132.914 40.2891 132.802 40.2552 132.617C40.1833 132.469 40.0878 132.331 39.9722 132.208C39.3586 131.344 38.832 130.432 38.3985 129.483C39.2783 129.007 40.2072 128.609 41.1722 128.295C41.5231 128.182 42.6099 127.875 42.9043 128.039C44.3567 128.731 45.8716 129.31 47.4327 129.77C47.4957 129.797 47.5681 129.801 47.6338 129.779C47.6997 129.758 47.7536 129.714 47.7836 129.657C47.8137 129.6 47.8174 129.534 47.7939 129.475C47.7707 129.416 47.7221 129.367 47.6591 129.34L45.7006 128.264C46.1174 127.409 46.3848 126.5 46.4931 125.571L51.3271 127.937C51.6215 128.09 51.8479 127.67 51.6328 127.558C51.4177 127.445 36.7457 119.005 33.8248 117.848ZM32.1041 118.933C32.4991 118.826 32.9202 118.826 33.3154 118.933C33.5758 119.036 34.2098 119.343 35.0702 119.773C34.7799 120.498 34.5823 121.251 34.4815 122.016C33.723 121.627 33.2701 121.33 32.6701 121.422C32.343 121.489 32.0369 121.622 31.7757 121.812C31.889 121.013 31.9908 120.398 32.1041 118.933ZM27.5756 121.187C28.7497 120.174 30.1741 119.429 31.7305 119.015C31.1261 121.432 30.7025 123.881 30.4625 126.349C29.3209 124.714 28.3578 122.981 27.587 121.177L27.5756 121.187ZM32.7154 129.801C32.0927 128.869 31.4135 127.834 30.7682 126.82C31.1531 125.355 31.2776 124.679 31.5154 123.297C32.1347 124.269 32.8508 125.187 33.655 126.042C33.1985 127.261 32.8873 128.521 32.7267 129.801H32.7154ZM34.6966 132.751C34.289 132.167 33.7682 131.378 33.089 130.364C33.5188 129.079 33.8032 127.757 33.9381 126.421C34.1871 126.964 36.406 126.185 37.006 125.98C36.5645 127.24 35.0249 131.624 34.7079 132.751H34.6966ZM34.3569 126.103C33.6552 125.005 33.035 123.865 32.5003 122.692L32.8512 122.518C33.0097 122.6 36.8815 124.669 37.1645 124.833C36.2821 125.341 35.3454 125.766 34.3682 126.103H34.3569ZM37.7532 123.85C36.9042 123.338 35.7494 122.713 34.8664 122.252C35.1683 121.526 35.3664 120.769 35.4551 119.999L38.6702 121.637C38.6136 122.027 38.2287 122.826 37.8212 123.85H37.7532ZM45.2477 127.947L43.5043 126.994C42.7295 126.718 41.8675 126.718 41.0929 126.994C41.5318 125.797 41.85 124.566 42.0439 123.317L46.1421 125.366C45.7234 126.201 45.4447 127.088 45.3157 127.998L45.2477 127.947Z" fill="black"/>
<path d="M214.486 131.593C212.652 116.148 196.847 92.3953 187.405 79.4181C192.677 79.7997 197.969 79.9193 203.254 79.7766C204.76 79.7766 208.7 79.5308 209.46 79.3976C209.9 79.3157 209.968 78.9367 209.301 78.9162C208.632 78.8958 203.877 78.6909 203.233 78.6807H191.719C189.952 78.7421 187.19 78.8855 187.032 78.8855C183.635 74.2047 181.269 71.2754 181.247 71.2651C181.221 71.2413 181.189 71.2225 181.155 71.2106C181.12 71.1987 181.083 71.1934 181.046 71.1951C181.009 71.1977 180.973 71.2063 180.94 71.2225C180.907 71.2379 180.879 71.2592 180.856 71.2856C180.833 71.3121 180.817 71.3428 180.808 71.3752C180.8 71.4085 180.798 71.4419 180.806 71.4752C180.813 71.5076 180.828 71.5391 180.849 71.5664C180.87 71.5938 180.897 71.6169 180.93 71.6339C181.45 72.0128 204.33 102.259 211.327 123.092C214.101 131.358 215.742 141.733 206.798 144.601C185.56 151.463 19.2203 153.696 3.49552 145.625C1.31056 144.509 0.801118 142.184 1.23132 139.05C1.89926 134.697 4.49173 128.807 7.61635 122.211C11.1372 125.284 40.3453 149.548 45.0775 148.637C49.8097 147.725 76.4253 136.54 77.5235 134.4C78.1616 132.913 78.4989 131.334 78.5197 129.739C78.6539 129.572 78.7163 129.367 78.6955 129.161C78.6747 128.957 78.572 128.765 78.4065 128.623C76.6518 127.045 41.8397 102.074 39.5981 102.146C38.0358 102.208 35.2055 103.662 33.8583 104.379C33.4216 103.732 32.7713 103.227 31.9994 102.932C31.2273 102.638 30.3729 102.571 29.5564 102.74C28.7867 103.021 28.0974 103.457 27.5406 104.014C26.9836 104.571 26.5736 105.235 26.3412 105.956C26.354 106.012 26.3875 106.061 26.4359 106.097C26.4843 106.133 26.545 106.152 26.6073 106.152C26.6699 106.152 26.7304 106.133 26.7788 106.097C26.8274 106.061 26.8607 106.012 26.8733 105.956C27.5544 104.914 28.6338 104.135 29.9073 103.764C30.4371 103.691 30.9787 103.755 31.4698 103.949C31.9607 104.143 32.3809 104.459 32.681 104.86L20.092 109.726C19.4236 109.104 18.5892 108.648 17.6693 108.404C15.5183 107.892 14.0693 109.172 13.2089 111.047C13.19 111.101 13.1922 111.159 13.2151 111.212C13.2381 111.264 13.2804 111.308 13.335 111.335C13.3895 111.364 13.4529 111.373 13.5145 111.364C13.5761 111.354 13.6321 111.325 13.6731 111.282C15.1221 109.388 16.7976 108.742 18.8014 110.258C16.3787 111.231 12.9938 112.614 10.6164 113.679C10.7862 113.433 35.2169 73.4058 35.2169 73.3034C36.2924 71.5007 38.4547 68.2743 40.6849 67.8544C41.6931 67.6555 42.7215 67.5523 43.7529 67.5471C42.1793 69.9029 29.4092 89.0563 29.3865 91.7603C29.3865 94.833 29.9752 94.3516 31.7866 94.833C33.598 95.3144 134.955 94.751 135.136 94.751C136.891 94.751 143.751 94.5462 144.385 94.1263C146.355 92.8152 145.914 90.8589 145.053 88.8002C144.85 88.3086 143.819 86.2703 142.438 83.5458C148.382 81.9275 152.853 83.9862 153.261 92.764C153.669 100.354 150.363 102.668 144.034 102.341C138.951 102.074 135.442 100.722 134.332 102.515C133.087 104.512 136.529 108.998 138.023 110.862C137.808 110.862 128.332 110.688 125.943 110.596C122.577 110.478 119.207 110.516 115.845 110.709C113.53 110.755 111.228 111.04 108.985 111.559C108.135 111.938 107.037 113.915 106.573 114.744C105.656 116.373 101.479 126.595 100.324 129.545C99.6447 131.245 97.3466 136.878 98.8862 137.872C98.8296 138.968 99.0221 140.432 100.086 140.944C101.15 141.457 115.777 141.825 116.898 141.846C118.879 141.897 138.906 142.133 151.687 141.62C164.469 141.108 170.05 140.002 169.722 140.033C170.046 139.947 170.338 139.78 170.564 139.551C170.79 139.324 170.942 139.044 171.001 138.742C171.176 137.985 171.121 137.2 170.843 136.469C172.269 133.959 161.48 113.126 158.491 111.661C158.315 111.572 158.117 111.522 157.914 111.518C157.314 111.518 143.887 111.006 138.668 110.852C137.536 109.408 133.857 103.969 135.272 102.812C137.423 101.112 155.389 109.633 154.427 92.6718C153.929 85.0002 150.023 80.5038 142.099 83.1054C141.408 81.7534 135.612 70.5482 134.061 67.5676C140.069 67.8929 146.097 67.7734 152.084 67.2091C152.169 68.1652 152.473 69.0947 152.976 69.9388C153.479 70.783 154.17 71.5247 155.004 72.1152C159.533 75.188 177.556 74.7271 180.828 70.9681C181.745 69.8338 182.379 68.533 182.685 67.1553C182.992 65.7778 182.965 64.3567 182.605 62.9892C182.906 62.8159 183.14 62.5617 183.273 62.262C183.454 61.9445 183.273 61.5451 182.492 61.4017C181.484 61.265 180.465 61.2102 179.447 61.2378C179.447 60.3979 179.503 58.8308 179.447 57.0486C179.548 56.9872 180.284 56.1883 180.364 56.0961C181.266 55.1422 181.979 54.0541 182.469 52.88C182.843 51.9274 182.99 50.8315 182.005 50.2989C180.488 49.5512 179.424 50.9236 178.914 52.46C178.439 50.094 177.341 46.6218 174.714 46.9701C170.254 47.5846 173.333 57.3661 174.782 61.2378C173.51 61.0756 172.217 61.0756 170.944 61.2378C172.36 58.0217 173.084 53.8632 169.45 53.2384C168.899 53.1282 168.325 53.1665 167.797 53.3485C167.271 53.5306 166.814 53.8483 166.484 54.2627C166.411 54.0308 166.275 53.8195 166.087 53.6485C165.9 53.4776 165.667 53.3522 165.411 53.2848C165.156 53.2172 164.885 53.2094 164.625 53.2623C164.366 53.315 164.124 53.4267 163.925 53.5867C162.261 54.6724 163.212 57.1613 165.148 57.9807C165.046 59.0336 165.046 60.0927 165.148 61.1456C163.943 61.0139 162.724 61.038 161.525 61.2173C161.458 58.7165 161.156 56.2253 160.62 53.771C161.307 53.3282 161.887 52.7608 162.319 52.1049C162.752 51.449 163.029 50.7188 163.133 49.9609C163.291 48.5986 162.759 47.4617 161.503 47.1647C159.929 46.7959 159.001 47.7895 158.729 49.2132C157.337 47.4719 154.608 46.8472 153.284 48.8444C149.038 44.8499 146.989 47.0827 148.065 48.8444C148.868 50.1964 150.963 50.9544 152.593 51.3743C152.593 53.6686 153.725 55.6044 155.129 57.5812C156.069 58.9127 157.122 60.1931 157.937 61.1354C156.175 61.0841 154.412 61.1871 152.672 61.4426C151.608 61.6987 151.438 62.3952 152.423 62.8971C152.112 64.0977 151.998 65.3331 152.084 66.5639C146.002 66.2711 139.905 66.4009 133.846 66.9531C133.461 66.2054 132.317 64.0237 132.181 63.7677C132.045 63.5116 133.132 60.5413 134.661 32.9277C141.68 32.3951 173.243 33.0301 176.141 32.0161C176.307 31.9621 176.454 31.8692 176.568 31.7468C176.681 31.6245 176.757 31.477 176.786 31.3196C177.748 28.462 178.405 3.90059 176.786 1.61653C176.39 1.05319 174.975 0.87907 174.194 0.776646C164.107 -0.554872 122.015 0.0187057 119.853 1.05319C117.69 2.08768 118.607 12.1867 119.015 14.1942C97.1541 13.5592 46.6737 14.7986 41.9189 16.4066C40.7868 16.7753 40.3679 18.1786 40.1415 19.2335C38.2622 28.0113 43.5378 56.26 45.3039 64.9865C45.1907 64.9865 45.3039 64.9865 43.9227 66.9326C42.7538 66.8542 41.5785 66.9095 40.4245 67.0965C37.8433 67.4549 35.4659 70.6813 34.1527 72.6888C34.0961 72.7913 30.7564 77.8101 30.2583 78.6294C27.4167 78.23 14.2052 78.3836 12.5296 78.4656C10.8541 78.5475 9.13336 78.6602 7.61635 78.7626C7.34464 78.7626 7.322 79.2337 7.61635 79.244C10.7862 79.4181 11.9523 79.4796 14.4089 79.5103C20.4203 79.5922 29.2847 79.8176 29.5677 79.7868C28.979 80.7189 20.2618 94.7511 19.0957 96.7381C14.024 105.342 10.039 113.218 9.80128 113.884C8.48532 114.425 7.24926 115.114 6.12195 115.932C5.75836 116.835 5.541 117.78 5.47668 118.739C5.42007 120.388 6.07667 120.787 7.08424 121.709C4.3807 126.95 2.15807 132.383 0.438845 137.954C-0.122409 140.207 -0.145587 142.543 0.370919 144.806C0.833166 147.068 1.69721 149.247 2.92947 151.259C3.483 151.767 4.20032 152.104 4.97853 152.221C7.95596 152.979 17.1825 153.952 20.2731 154.27C20.0403 155.521 19.9757 156.794 20.0807 158.06C20.084 159.364 20.2935 160.66 20.7033 161.911C20.7072 161.941 20.7175 161.971 20.734 161.999C20.7507 162.026 20.7729 162.05 20.7997 162.07C20.8266 162.089 20.8573 162.104 20.8902 162.112C20.9234 162.122 20.958 162.124 20.9921 162.121C21.0263 162.117 21.0594 162.108 21.0897 162.093C21.1199 162.078 21.1465 162.058 21.1679 162.034C21.1895 162.009 21.2056 161.982 21.2152 161.952C21.2249 161.922 21.228 161.89 21.2241 161.86C21.4052 160.583 21.4546 159.294 21.3713 158.008C21.3639 156.771 21.2082 155.538 20.9071 154.331C22.4694 154.454 23.9751 154.557 25.2883 154.598C25.0796 155.793 25.0226 157.006 25.1185 158.213C25.1224 159.518 25.3322 160.814 25.7412 162.064C25.7412 162.127 25.7688 162.187 25.8175 162.231C25.8663 162.275 25.9326 162.3 26.0016 162.3C26.0707 162.3 26.137 162.275 26.1858 162.231C26.2348 162.187 26.2619 162.127 26.2619 162.064C26.4493 160.788 26.5024 159.499 26.4204 158.213C26.4128 157.017 26.2609 155.825 25.9676 154.659C28.4922 154.71 65.6478 157.732 129.815 156.585C147.012 156.277 167.684 155.56 184.711 153.87C184.486 155.105 184.421 156.36 184.518 157.609C184.524 158.91 184.737 160.204 185.152 161.45C185.145 161.484 185.145 161.52 185.154 161.554C185.163 161.588 185.181 161.62 185.205 161.647C185.23 161.674 185.26 161.697 185.295 161.711C185.33 161.726 185.368 161.734 185.407 161.734C185.446 161.734 185.484 161.726 185.519 161.711C185.554 161.697 185.585 161.674 185.61 161.647C185.633 161.62 185.652 161.588 185.66 161.554C185.669 161.52 185.67 161.484 185.662 161.45C185.86 160.175 185.913 158.884 185.82 157.599C185.808 156.334 185.645 155.073 185.333 153.84C186.59 153.717 189.5 153.389 189.749 153.358C189.526 154.587 189.465 155.835 189.568 157.076C189.569 158.381 189.778 159.678 190.19 160.927C190.198 160.99 190.233 161.047 190.287 161.086C190.341 161.126 190.41 161.144 190.479 161.138C190.548 161.131 190.611 161.099 190.654 161.05C190.699 161.001 190.719 160.939 190.711 160.876C190.898 159.603 190.947 158.317 190.858 157.035C190.851 155.773 190.687 154.516 190.371 153.287C195.477 152.662 211.088 150.757 213.216 146.813C215.729 142.317 215.528 136.469 214.486 131.593ZM111.464 115.103C111.588 114.826 115.381 114.079 119.524 115.103C119.562 115.095 119.602 115.096 119.639 115.104C119.677 115.112 119.712 115.128 119.742 115.15C119.772 115.172 119.797 115.2 119.813 115.232C119.83 115.263 119.839 115.298 119.839 115.333C119.839 115.368 119.83 115.403 119.813 115.435C119.797 115.466 119.772 115.495 119.742 115.516C119.712 115.538 119.677 115.554 119.639 115.562C119.602 115.571 119.562 115.571 119.524 115.564C117.461 115.895 115.355 115.944 113.275 115.707C112.302 115.564 111.068 115.553 111.43 115.103H111.464ZM169.665 139.459C159.193 141.262 101.343 140.852 100.471 140.484C99.5994 140.115 99.5202 138.927 99.4976 138.148C105.769 139.992 167.05 138.568 170.458 136.94C170.639 137.841 170.684 139.285 169.631 139.459H169.665ZM147.691 115.215C147.691 114.867 150.182 114.673 150.295 114.662C151.776 114.559 153.263 114.559 154.744 114.662C155.571 114.744 156.714 114.847 156.623 115.164C156.533 115.482 154.823 115.615 154.529 115.656C153.422 115.748 152.312 115.789 151.201 115.779C150.453 115.758 147.612 115.635 147.657 115.215H147.691ZM162.239 118.626C165.071 123.508 167.449 128.596 169.348 133.836C169.59 134.498 169.724 135.188 169.744 135.885C164.639 137.319 105.792 138.794 99.8372 137.247C99.5542 137.175 99.4749 137.247 99.407 136.817C98.9768 134.031 104.015 122.959 105.181 120.378C126.6 119.732 162.012 118.739 162.205 118.626H162.239ZM152.706 50.9134C151.469 50.2981 150.345 49.51 149.378 48.5781C148.936 47.9738 149.038 47.5539 150.34 48.1275C151.155 48.4655 152.299 49.0698 153.069 49.4897C152.871 49.9454 152.749 50.4253 152.706 50.9134ZM179.877 52.7468C180.782 51.2719 181.677 50.8519 181.586 51.7225C181.099 53.2805 180.408 54.7798 179.526 56.1883C179.458 55.164 179.379 54.4778 179.288 53.8018C179.333 53.6584 179.56 53.2282 179.843 52.7468H179.877ZM175.065 61.6577C175.292 62.2415 175.439 62.5898 175.45 62.6103C175.463 62.6393 175.481 62.6658 175.506 62.6881C175.529 62.7106 175.558 62.7285 175.59 62.7408C175.621 62.7533 175.655 62.76 175.69 62.7604C175.724 62.7607 175.758 62.755 175.79 62.7434C176.288 62.5693 175.552 62.1494 174.375 55.9732C174.024 54.1295 172.982 48.445 175.043 48.1787C176.718 47.9533 177.624 51.7123 177.941 53.1975C178.529 56.0601 178.907 58.9548 179.073 61.8626C179.072 61.9194 179.094 61.9743 179.134 62.0177C179.175 62.0609 179.231 62.0896 179.294 62.0983C179.355 62.1071 179.419 62.0954 179.472 62.0652C179.525 62.035 179.564 61.9885 179.582 61.9343C179.586 61.8764 179.586 61.8181 179.582 61.7601C180.606 61.7873 181.623 61.9145 182.616 62.1391C182.49 62.2726 182.332 62.3779 182.152 62.4464C179.775 63.5526 172.586 63.3375 170.107 63.2965C170.446 62.682 170.684 62.2108 170.944 61.6475C172.297 61.8486 173.678 61.8521 175.031 61.6577H175.065ZM166.235 59.4146C166.495 57.3661 167.073 54.0988 169.36 54.488C171.646 54.8772 171.069 57.8783 170.571 59.8858C170.264 61.0374 169.886 62.1726 169.439 63.2863H166.042C166.015 61.994 166.068 60.7015 166.201 59.4146H166.235ZM164.797 54.6007C164.85 54.5552 164.912 54.5204 164.981 54.4983C165.049 54.4761 165.123 54.467 165.194 54.4718C165.267 54.4767 165.338 54.4953 165.402 54.5262C165.466 54.5571 165.523 54.6001 165.567 54.6519C165.747 54.8152 165.91 54.9934 166.054 55.1845C165.732 55.8376 165.508 56.5264 165.386 57.233C164.797 56.4955 164.039 55.1538 164.797 54.6007ZM161.231 48.3733C162.703 48.7932 161.548 52.2961 160.563 53.3613C160.291 52.2589 159.885 51.1872 159.352 50.1657C159.68 49.2644 160.235 48.0865 161.231 48.363V48.3733ZM158.446 61.7704C159.001 62.4054 159.363 62.7946 159.363 62.7946C159.408 62.8349 159.468 62.8587 159.531 62.862C159.594 62.8656 159.656 62.8481 159.706 62.8129C159.756 62.7779 159.79 62.7276 159.802 62.6713C159.814 62.6153 159.803 62.5572 159.771 62.5078C159.771 62.5078 157.767 59.9268 156.114 57.2535C154.869 55.205 153.68 53.1565 154.008 50.8929C154.269 49.1107 155.31 48.3528 157.065 49.3873C159.601 50.8622 160.756 59.9575 161.118 62.7024C161.122 62.7743 161.15 62.8432 161.198 62.9002C161.247 62.957 161.314 62.9989 161.39 63.02C161.695 63.02 161.65 62.7229 161.639 62.5795C161.627 62.4361 161.639 61.7192 161.639 61.6475C162.842 61.7851 164.058 61.7851 165.261 61.6475C165.329 62.3952 165.408 62.979 165.465 63.2863C161.446 63.2863 156.589 63.5321 153.261 62.3542C154.972 62.048 156.704 61.8529 158.446 61.7704ZM153.023 63.276C154.679 63.8567 156.424 64.2021 158.197 64.3003C160.201 64.4641 173.843 64.4846 175.394 64.4129C177.732 64.3779 180.048 63.9869 182.243 63.2555C182.453 64.5128 182.374 65.7966 182.01 67.0257C181.646 68.2539 181.004 69.401 180.126 70.3945C177.375 73.3136 159.974 73.9794 155.797 71.3163C153.046 69.6059 152.548 66.1849 153.023 63.2658V63.276ZM143.899 93.3478C144.136 94.0341 36.1905 94.0648 36.0773 94.0546C31.5489 94.0546 32.681 94.0546 31.1639 93.7166C30.7564 93.6346 30.6771 93.6346 30.5979 93.2761C30.502 92.7137 30.4754 92.1435 30.5186 91.5759C30.5425 91.6178 30.5808 91.6519 30.6279 91.6724C30.6749 91.6921 30.728 91.6981 30.779 91.6886C30.779 91.6886 143.865 90.2956 144.6 90.2751C144.906 91.4735 144.951 92.5899 143.899 93.3478ZM175.745 31.1865C175.745 31.1865 175.812 31.084 175.835 31.1148C175.858 31.1455 175.745 31.1762 175.688 31.1865H175.745ZM119.445 5.35502C119.445 4.68926 119.74 2.16962 120.396 1.86234C121.891 1.18634 169.382 0.612768 175.869 2.44616C177.001 4.59708 176.639 28.759 175.688 31.1865C170.118 31.9751 142.087 31.9137 134.796 32.5897C135.238 24.5289 135.43 17.7381 135.068 16.4169C134.998 16.2446 134.885 16.0893 134.738 15.963C134.591 15.8368 134.413 15.7433 134.219 15.6896C131.74 14.7166 122.411 14.4401 119.694 14.3581C119.341 11.3681 119.258 8.35717 119.445 5.35502ZM41.1604 31.1455C40.9906 28.9946 40.1528 18.1376 42.417 17.3796C43.5491 17.0212 47.5341 16.6627 53.3192 16.3554C64.4024 15.7306 81.8708 15.2287 97.7654 15.1263C101.298 15.1263 131.14 14.8907 134.061 16.7036C134.921 20.2475 132.17 59.6195 131.559 63.4194C104.807 64.2081 73.1083 65.3962 46.1303 64.8022C45.6775 62.4566 42.2133 44.3582 41.1604 31.1455ZM45.7794 65.4884C45.7816 65.4646 45.7816 65.4407 45.7794 65.4167C64.8553 65.9493 124.551 64.1774 131.819 64.1364C132.623 65.8264 143.91 88.4827 144.385 89.7425C144.261 89.7425 30.6885 91.1355 30.5413 91.2379C31.9677 86.9156 43.7642 68.6431 45.7794 65.4884ZM76.9008 134.113C76.0631 135.588 50.6814 145.851 45.4624 147.274C45.5637 146.802 45.6017 146.321 45.5756 145.84C53.2852 143.423 70.0177 137.042 77.5235 132.525C77.3806 133.077 77.1717 133.613 76.9008 134.123V134.113ZM77.682 131.849C75.4178 133.058 73.2555 133.898 45.5643 145.287C45.5655 144.824 45.497 144.362 45.3605 143.915C48.9832 142.378 73.5498 133.765 77.931 130.333C77.8744 130.774 77.7952 131.306 77.682 131.859V131.849ZM19.3675 110.832C19.9119 111.412 20.2488 112.128 20.3339 112.885C20.4187 113.642 20.2476 114.405 19.8429 115.072C19.6618 115.328 20.092 115.594 20.2731 115.328C20.9567 114.654 21.3608 113.787 21.4166 112.873C21.4721 111.96 21.1763 111.058 20.5788 110.32C26.0808 108.035 31.4923 105.885 32.9753 105.301C33.3464 105.983 33.5451 106.73 33.5568 107.491C33.5685 108.251 33.3932 109.004 33.0432 109.695C32.9074 110.023 33.3149 110.145 33.5074 109.93C34.1301 109.214 34.5176 108.355 34.6259 107.449C34.734 106.544 34.5582 105.629 34.1187 104.809C35.3414 104.184 38.1943 102.761 39.5868 102.761C41.3302 102.761 76.7084 128.797 77.365 129.391C74.4102 132.146 46.9794 141.969 44.6699 142.972C39.8019 141.948 10.0956 118.831 7.31066 116.455C9.04277 115.154 17.4202 111.651 19.3675 110.832ZM6.45026 116.926C9.98242 120.05 39.4509 143.321 44.3869 144.058C44.2881 144.444 44.2424 144.84 44.251 145.236C36.3263 141.733 13.6844 123.993 6.18988 118.288C6.22384 118.288 6.39366 117.284 6.48422 116.926H6.45026ZM6.6201 120.439C6.30074 120 6.14235 119.48 6.16726 118.954C13.5712 125.714 34.4697 142.337 44.2397 145.799C44.2197 146.347 44.2807 146.895 44.4208 147.428C38.6132 146.25 7.38993 121.279 6.65406 120.439H6.6201ZM212.662 146.475C205.349 159.606 6.89178 156.175 3.67665 151.054C2.31381 148.911 1.39317 146.561 0.959612 144.12C1.39634 144.985 2.12582 145.702 3.04268 146.168C19.7071 154.946 185.503 152.652 207.148 145.615C211.734 144.12 214.044 140.893 214.564 136.397C214.871 139.849 214.21 143.316 212.64 146.475H212.662Z" fill="black"/>
<path d="M43.1414 76.8165C123.192 77.8408 130.834 77.216 133.076 76.8985C133.608 76.8268 133.947 76.6629 133.925 76.0996C133.925 74.6144 130.076 67.8032 129.057 67.332C128.604 67.1169 47.5453 68.1514 47.2623 68.2334C47.2096 68.2445 47.1602 68.2667 47.1172 68.2965C47.0743 68.3265 47.0387 68.3639 47.0132 68.4075C46.2434 69.5444 42.4848 75.1573 42.6546 76.4273C42.6729 76.5331 42.7318 76.6305 42.8205 76.7013C42.9094 76.7722 43.0229 76.8132 43.1414 76.8165ZM47.5906 68.9401C48.4057 68.8479 128.151 68.1309 128.638 68.1719C129.483 69.2721 130.24 70.4253 130.902 71.6236C129.045 71.6236 46.0622 72.0231 45.632 72.0333C46.1302 71.132 46.7868 70.1077 47.5906 68.9401ZM45.3264 72.525C45.7679 72.525 129.736 72.1357 131.174 72.105C131.919 73.3598 132.508 74.6861 132.929 76.0586C128.898 76.6424 92.1729 76.3556 43.549 76.0586C44.0033 74.8176 44.5909 73.6209 45.3037 72.484L45.3264 72.525ZM105.622 80.299C105.397 79.8466 105.028 79.465 104.562 79.203C104.097 78.9401 103.555 78.8088 103.007 78.8241C100.132 78.8241 75.9837 78.2198 73.81 79.0187C72.4223 80.5398 71.3486 82.275 70.6402 84.1399C70.5722 84.5906 70.8213 84.7954 71.127 84.8261C77.9196 85.4919 100.437 86.1269 106.279 85.1539C107.003 85.031 107.094 84.3345 106.947 83.6687C106.597 82.5182 106.153 81.3916 105.622 80.299ZM71.444 84.1399C72.0942 82.478 72.977 80.8982 74.0704 79.4386C75.7912 78.9265 98.1731 79.9917 103.041 79.9814C103.331 79.9721 103.617 80.0386 103.867 80.1727C104.116 80.3075 104.317 80.5038 104.445 80.7394C104.995 81.8029 105.424 82.9151 105.724 84.0579C99.9844 84.8671 75.6101 84.4062 71.444 84.1399ZM184.247 81.61C182.65 79.623 174.646 79.7151 171.963 79.7868C169.699 79.7868 161.469 80.1248 161.469 82.1324C161.478 82.2946 161.53 82.4534 161.621 82.5942C161.711 82.735 161.838 82.8536 161.99 82.9415C162.205 83.0952 160.722 96.5947 162.759 103.836C163.427 106.233 164.288 107.421 166.812 108.414C171.658 110.32 179.696 109.9 182.922 105.833C183.567 104.645 183.432 101.183 183.488 100.128C188.503 101.03 192.613 99.186 193.677 94.3004C194.345 91.156 193.485 89.0972 192.002 87.8477C191.011 87.1178 189.839 86.6152 188.588 86.3839C187.336 86.1517 186.041 86.1969 184.813 86.5161C184.77 86.529 184.724 86.5333 184.68 86.5264C184.635 86.5204 184.592 86.5051 184.556 86.4804C184.519 86.4564 184.489 86.4249 184.469 86.3882C184.449 86.3515 184.438 86.3113 184.439 86.2703C184.439 85.7275 184.654 82.0504 184.247 81.61ZM162.737 81.8251C165.793 80.2068 178.247 80.0839 182.266 81.7329C182.401 81.7944 182.911 82.0299 182.911 82.1324C182.911 82.2348 182.39 82.4806 182.266 82.5318C179.232 83.7712 168.397 84.3345 162.703 82.4499C162.307 82.2553 162.703 81.8661 162.703 81.8251H162.737ZM185.13 87.5609C186.159 87.2929 187.244 87.2545 188.293 87.4482C189.342 87.6428 190.323 88.0644 191.153 88.6773C192.375 89.7015 192.987 91.4632 192.42 94.0751C192.308 94.9833 191.96 95.8539 191.405 96.6178C190.851 97.3808 190.104 98.0158 189.228 98.4691C187.371 99.2253 185.281 99.3697 183.318 98.8788C183.222 98.8473 183.119 98.8335 183.017 98.8395C182.915 98.8454 182.814 98.8702 182.723 98.9121C182.632 98.9547 182.551 99.0136 182.486 99.0853C182.421 99.157 182.373 99.2398 182.345 99.3294C182.039 100.108 182.469 103.252 181.847 105.239C178.982 108.752 171.658 109.07 167.322 107.421C165.126 106.571 164.514 105.69 163.925 103.57C162.408 98.5408 162.318 88.2983 162.658 83.259C166.224 84.7852 178.575 85.2256 183.432 82.9722C183.432 86.1474 183.001 86.68 183.884 87.3253C184.055 87.4422 184.252 87.5232 184.462 87.5642C184.67 87.6044 184.887 87.6035 185.096 87.5609H185.13ZM75.1572 109.265C72.1841 106.983 68.9856 104.953 65.6023 103.201C64.299 102.506 62.9126 101.946 61.4701 101.532C60.2588 101.245 59.7493 101.808 59.9984 102.556C60.5087 103.63 61.1832 104.632 62.0022 105.536C64.6071 108.52 67.6026 111.206 70.9232 113.536C75.9724 117.356 82.5159 121.986 87.2934 125.274C87.5369 125.435 87.8133 125.55 88.1066 125.612C88.3999 125.676 88.7042 125.685 89.002 125.641C89.2992 125.595 89.5833 125.497 89.839 125.351C90.0936 125.206 90.3134 125.016 90.4861 124.792C91.3239 123.963 91.8446 122.508 90.905 121.719C89.8182 120.839 83.1725 115.174 75.1572 109.265ZM64.3117 106.991L62.7607 104.727C63.313 104.52 63.7798 104.161 64.0966 103.703L66.5533 104.604C65.9368 104.715 65.3798 105.011 64.9729 105.444C64.5659 105.878 64.3329 106.422 64.3117 106.991ZM67.7873 109.603C66.9691 108.979 66.2116 108.294 65.5231 107.554C65.6023 106.315 66.0325 105.762 67.4024 105.721C68.315 106.115 69.1769 106.6 69.9722 107.165C69.3634 107.299 68.8202 107.611 68.4256 108.05C68.0308 108.49 67.8066 109.036 67.7873 109.603ZM87.1462 124.505C85.8896 123.553 69.1798 110.729 68.1495 109.91C68.236 109.336 68.5128 108.8 68.9435 108.373C69.3739 107.944 69.9381 107.645 70.5609 107.513C74.4667 110.135 80.0819 114.478 89.8748 121.853C89.4936 121.835 89.1126 121.894 88.7589 122.023C88.4053 122.153 88.0871 122.351 87.8271 122.604C87.5671 122.856 87.3714 123.158 87.2538 123.486C87.1361 123.815 87.0995 124.162 87.1462 124.505ZM176.854 135.854C178.269 136.725 179.254 136.325 180.171 135.117C182.435 132.208 190.36 119.333 190.36 119.23C190.36 119.128 190.451 119.323 190.077 115.185C190.061 115.029 189.999 114.88 189.897 114.754C189.796 114.627 189.658 114.528 189.5 114.467C189.341 114.405 189.167 114.382 188.996 114.403C188.824 114.423 188.662 114.484 188.526 114.58L184.654 117.131C184.654 117.131 176.062 133.201 175.971 133.345C175.815 133.795 175.817 134.277 175.975 134.726C176.133 135.175 176.44 135.568 176.854 135.854ZM188.843 115.83C188.911 116.578 189.002 117.571 189.069 118.257C188.229 117.893 187.349 117.609 186.443 117.407L188.843 115.83ZM185.605 118.104C186.586 118.733 187.72 119.141 188.911 119.292C188.741 119.558 180.092 133.836 180.001 133.98C179.738 133.496 179.306 133.104 178.772 132.865C178.238 132.626 177.632 132.553 177.047 132.658C177.93 131.173 185.288 118.616 185.605 118.104Z" fill="black"/>
<path d="M180.397 97.7931C180.276 97.6377 180.121 97.5063 179.942 97.4064C179.762 97.3064 179.563 97.239 179.356 97.2092C178.686 97.047 178.006 96.9241 177.318 96.8405C177.703 99.2782 177.929 101.962 177.918 102.197C177.901 102.354 177.816 102.497 177.683 102.597C177.549 102.696 177.378 102.744 177.205 102.73C177.032 102.712 176.873 102.633 176.763 102.511C176.653 102.389 176.6 102.231 176.616 102.074C176.616 101.9 176.548 101.194 176.492 96.7381C174.228 96.482 163.325 95.7138 163.756 97.6804C163.756 97.7828 162.861 102.802 166.325 105.209C169.79 107.616 176.718 107.144 179.141 104.696C179.829 103.951 180.282 103.052 180.454 102.095C180.722 100.67 180.702 99.2125 180.397 97.7931ZM183.115 88.5236C183.115 88.9846 182.435 92.508 181.982 97.24L182.526 97.3424C184.518 97.7247 186.593 97.5199 188.447 96.7586C189.094 96.4334 189.629 95.9544 189.994 95.3725C190.36 94.7903 190.541 94.1296 190.518 93.4605C190.596 92.6292 190.436 91.7936 190.054 91.034C189.673 90.2742 189.084 89.6153 188.341 89.1211C187.599 88.6261 186.729 88.3112 185.814 88.2061C184.898 88.102 183.97 88.2112 183.115 88.5236ZM183.624 88.8719C184.347 88.7685 185.085 88.8062 185.79 88.9829C186.496 89.1596 187.15 89.471 187.711 89.8961C188.25 90.3425 188.667 90.8956 188.93 91.5128C189.193 92.129 189.295 92.7921 189.228 93.4503C189.126 96.0826 186.137 96.5844 183.273 96.3181C183.409 94.454 183.522 92.3133 183.624 88.8719ZM74.0481 79.4386C74.0481 79.4386 74.0594 79.4488 74.0481 79.4386V79.4386ZM171.499 28.7486C171.496 28.9311 171.533 29.1123 171.608 29.2817C171.683 29.4512 171.794 29.6056 171.935 29.7361C172.076 29.8665 172.244 29.9704 172.429 30.0417C172.615 30.113 172.814 30.1507 173.016 30.152C173.325 30.1579 173.628 30.081 173.887 29.9305C174.146 29.7801 174.351 29.5631 174.473 29.3072C174.595 29.0516 174.631 28.7685 174.576 28.4944C174.52 28.2201 174.375 27.9672 174.159 27.7679C173.943 27.5686 173.667 27.4318 173.365 27.3751C173.064 27.3185 172.75 27.3444 172.465 27.4496C172.179 27.5549 171.935 27.7346 171.763 27.966C171.592 28.1973 171.499 28.47 171.499 28.7486ZM47.5909 62.5384C47.8513 62.9993 48.1909 63.0507 48.406 62.9073C48.6211 62.7639 120.317 62.2004 125.649 61.9443C126.796 61.9603 127.94 61.8294 129.045 61.5551C131.593 59.5066 132.589 21.2101 131.593 19.4382C129.045 14.8393 49.323 17.7996 44.421 19.1413C40.5153 20.2066 45.7909 59.271 47.5909 62.5384ZM44.2059 20.8004C44.2059 20.6161 44.455 19.8991 44.6474 19.8479C50.0702 18.373 128.808 15.9457 130.947 19.7969C131.13 20.5673 131.213 21.3545 131.196 22.1424C131.389 26.6081 131.196 36.1743 130.687 44.7473C130.585 46.3861 129.781 59.8139 128.604 61.0327C123.906 61.9341 51.508 62.1389 48.2928 62.2516C46.4588 58.4004 42.4965 27.5604 44.2059 20.8004ZM173.163 6.16398C173.471 6.17013 173.774 6.0934 174.033 5.9433C174.293 5.79339 174.496 5.577 174.619 5.32187C174.743 5.06655 174.779 4.78423 174.724 4.51029C174.668 4.23635 174.525 3.98346 174.31 3.78364C174.095 3.584 173.821 3.44657 173.52 3.38865C173.219 3.33092 172.906 3.35532 172.62 3.45904C172.334 3.56259 172.09 3.74081 171.916 3.9708C171.742 4.20078 171.649 4.4723 171.646 4.75052C171.642 4.93396 171.677 5.11627 171.752 5.28686C171.826 5.45744 171.937 5.61312 172.078 5.7446C172.219 5.87626 172.388 5.98092 172.575 6.05299C172.761 6.12506 172.961 6.16286 173.163 6.16398Z" fill="black"/>
<path d="M66.3615 46.6114H79.8108C81.3669 46.606 82.8574 46.0421 83.9549 45.0436C85.052 44.0452 85.6667 42.6936 85.6638 41.2853V31.4116C85.6638 30.0006 85.0498 28.6462 83.9543 27.6417C82.8588 26.6373 81.3702 26.0636 79.8108 26.0446H66.3615C65.5815 26.042 64.8088 26.1789 64.0878 26.4478C63.3665 26.7165 62.7114 27.1117 62.1599 27.6106C61.6085 28.1095 61.1717 28.7022 60.8747 29.3546C60.5777 30.0071 60.4262 30.7062 60.4292 31.4116V41.2853C60.4321 41.9876 60.5879 42.6822 60.8876 43.3299C61.1873 43.9776 61.6252 44.5655 62.176 45.06C62.727 45.5546 63.3801 45.9462 64.0981 46.2123C64.8162 46.4786 65.5855 46.6142 66.3615 46.6114ZM61.3915 31.4116C61.4121 30.2278 61.9434 29.0981 62.8719 28.2638C63.8004 27.4294 65.0527 26.9565 66.3615 26.9459H79.8108C80.4716 26.9392 81.1276 27.051 81.7405 27.2748C82.3533 27.4986 82.9111 27.8301 83.3817 28.2501C83.8522 28.6702 84.226 29.1702 84.4817 29.7216C84.7373 30.273 84.8697 30.8649 84.8713 31.4628V41.2853C84.8682 41.8841 84.7351 42.4761 84.4792 43.028C84.2231 43.58 83.8495 44.081 83.3798 44.5024C82.9099 44.9236 82.3527 45.2572 81.7403 45.4836C81.128 45.7103 80.4724 45.8255 79.8108 45.8227H66.3615C65.7057 45.8201 65.0571 45.7008 64.4525 45.4711C63.848 45.2417 63.2992 44.9067 62.8377 44.4855C62.3763 44.064 62.0109 43.5646 61.7629 43.0156C61.5146 42.4664 61.3884 41.8787 61.3915 41.2853V31.4116ZM102.724 53.9245C102.951 54.5288 103.517 54.3957 103.675 54.0167C103.89 53.4738 105.147 49.5715 105.305 48.8955C106.177 48.6497 103.72 49.4178 111.317 46.9187C111.396 46.8911 111.463 46.8427 111.511 46.7796C111.559 46.7164 111.585 46.642 111.585 46.5654C111.585 46.4889 111.559 46.4144 111.511 46.3513C111.463 46.2881 111.396 46.2397 111.317 46.212L99.6788 42.0023C99.6072 41.9718 99.5279 41.9587 99.4495 41.9643C99.3702 41.9701 99.2949 41.9941 99.2297 42.0347C99.1646 42.0749 99.1117 42.1303 99.0777 42.1947C99.043 42.2591 99.0277 42.3304 99.0335 42.4018C99.0335 42.4018 102.101 52.296 102.724 53.9245ZM100.2 43.0983L110.004 46.5909C108.69 47.0314 106.471 47.7893 105.407 48.1785C104.932 48.3424 104.739 48.4141 104.626 48.5472C104.513 48.6804 104.909 47.8815 103.245 52.5213L100.2 43.0983ZM126.917 13.0674C126.93 13.1289 126.967 13.1842 127.021 13.2235C127.075 13.263 127.143 13.2838 127.211 13.2825C127.449 13.2825 134.774 13.9175 136.268 13.5591C137.231 13.3235 137.4 11.7871 137.491 10.8858C137.604 9.52353 137.491 6.1845 136.857 5.04759C135.997 3.51122 129.646 4.02334 127.8 4.32037C127.31 4.38276 126.843 4.54384 126.43 4.79152C126.191 5.04349 126.051 5.36082 126.034 5.69286C126.023 8.17321 126.319 10.6468 126.917 13.0674ZM127.245 5.58019C129.034 5.07831 134.129 4.88371 135.748 5.58019C136.302 6.91171 136.597 11.4901 135.929 12.5553C134.876 12.8011 128.445 12.8011 127.37 12.8114C127.336 12.0124 126.815 7.70038 127.245 5.58019ZM142.11 13.0264C142.125 13.087 142.163 13.1412 142.216 13.1803C142.269 13.2192 142.335 13.2408 142.404 13.2415C142.642 13.2415 149.967 13.8766 151.461 13.5181C152.423 13.2825 152.593 11.7461 152.695 10.8448C152.797 9.48256 152.695 6.14353 152.05 5.00662C151.189 3.46001 144.838 3.98237 142.993 4.2794C142.504 4.34607 142.037 4.50679 141.623 4.75056C141.388 5.00531 141.25 5.32097 141.227 5.65189C141.217 8.13224 141.513 10.6059 142.11 13.0264ZM142.438 5.53922C144.227 5.0271 149.321 4.84274 150.94 5.53922C151.495 6.87074 151.789 11.4491 151.121 12.5041C150.069 12.7601 143.638 12.7601 142.563 12.7704C142.529 11.9715 142.008 7.65941 142.438 5.53922ZM158.005 13.4771C158.018 13.5386 158.055 13.5939 158.108 13.6332C158.162 13.6727 158.23 13.6935 158.299 13.6922C158.537 13.6922 165.861 14.3272 167.356 13.9688C168.318 13.7332 168.488 12.1968 168.578 11.2955C168.692 9.93323 168.578 6.59419 167.944 5.45728C167.084 3.92092 160.733 4.43304 158.888 4.73007C158.399 4.79506 157.931 4.95596 157.518 5.20122C157.278 5.45319 157.138 5.77052 157.122 6.10256C157.11 8.5829 157.406 11.0565 158.005 13.4771ZM158.333 5.98989C160.122 5.48801 165.216 5.2934 166.835 5.98989C167.39 7.32141 167.684 11.8998 167.016 12.965C165.963 13.2108 159.533 13.2108 158.457 13.2211C158.424 12.4221 157.903 8.11008 158.333 5.98989ZM142.212 28.7793C142.291 28.9842 142.472 29.0047 142.506 28.9944C142.755 28.9944 150.069 29.6294 151.563 29.271C152.525 29.0354 152.695 27.499 152.797 26.5977C152.899 25.2354 152.797 21.8964 152.163 20.7697C151.291 19.2231 144.94 19.7455 143.106 20.0323C142.613 20.0958 142.142 20.2567 141.725 20.5034C141.488 20.7608 141.349 21.0805 141.329 21.415C141.319 23.892 141.615 26.3621 142.212 28.7793ZM142.551 21.2921C144.34 20.7902 149.423 20.5956 151.042 21.2921C151.597 22.6236 151.891 27.202 151.223 28.2672C150.171 28.513 143.751 28.513 142.676 28.5233C142.631 27.7243 142.11 23.4123 142.551 21.2921ZM168.68 20.3498C170.492 17.9326 172.077 15.7509 172.133 15.6485C172.19 15.5461 171.363 14.6243 170.877 15.2798C167.412 20.104 167.888 19.6431 167.639 19.5611C165.646 18.9056 159.216 19.1309 158.208 19.9811C157.529 20.5546 157.79 22.6339 157.869 23.5249C157.144 23.1562 156.59 22.8899 156.386 22.8182C155.865 22.6339 155.899 23.0948 156.182 23.2586L157.948 24.2829C158.091 25.6289 158.322 26.9662 158.639 28.2877C158.65 28.3501 158.686 28.4067 158.741 28.4463C158.794 28.486 158.863 28.5061 158.933 28.5028C159.171 28.5028 166.495 29.1378 167.99 28.7793C169.937 28.2877 169.337 21.8247 168.68 20.3498ZM158.967 20.7697C161.63 20.2217 164.39 20.1762 167.073 20.6366L163.144 26.2392C162.748 26.0343 160.631 24.9077 158.865 24.0063C158.791 22.9372 158.824 21.8642 158.967 20.8005V20.7697ZM167.65 27.7346C166.586 27.9907 160.167 27.9907 159.091 28.0009C159.091 27.5912 158.922 26.2494 158.842 24.7643L163.144 27.1815C163.253 27.1923 163.363 27.175 163.461 27.1314C163.56 27.088 163.641 27.02 163.699 26.9357C164.061 26.5157 165.884 24.119 167.741 21.6506C168.092 23.4942 168.205 26.8537 167.673 27.7346H167.65ZM122.638 5.82601C122.945 5.83011 123.246 5.75152 123.505 5.60031C123.762 5.44909 123.964 5.23195 124.086 4.97663C124.207 4.72113 124.242 4.439 124.185 4.16562C124.128 3.89242 123.984 3.64046 123.769 3.44176C123.554 3.24305 123.279 3.10655 122.978 3.04956C122.678 2.99258 122.365 3.01772 122.08 3.12182C121.795 3.22573 121.551 3.40395 121.378 3.63376C121.206 3.86356 121.111 4.1347 121.109 4.41255C121.109 4.78221 121.269 5.13716 121.555 5.40142C121.841 5.66567 122.229 5.818 122.638 5.82601Z" fill="black"/>
</svg>
