<svg width="251" height="193" viewBox="0 0 251 193" fill="none" xmlns="http://www.w3.org/2000/svg">
<path d="M229.362 164.75V87.0864C229.362 39.0713 193.434 0.00878906 149.276 0.00878906H101.724C57.5656 0.00878906 21.6379 39.0713 21.6379 87.0864V164.75H0V174.164H25.9655H34.6207H52.1474C53.238 184.722 61.4041 192.992 71.4052 192.992C81.4062 192.992 89.5724 184.722 90.6629 174.164H160.337C161.423 184.722 169.594 192.992 179.595 192.992C189.596 192.992 197.762 184.722 198.853 174.164H216.379H225.034H251V164.75H229.362ZM216.379 164.75H199.069V136.509H190.414V164.75V171.82C190.414 178.301 185.563 183.578 179.595 183.578C173.627 183.578 168.776 178.301 168.776 171.82V164.75V136.509H160.121V164.75H90.8793V136.509H82.2241V164.75V171.82C82.2241 178.301 77.3729 183.578 71.4052 183.578C65.4374 183.578 60.5862 178.301 60.5862 171.82V164.75V136.509H51.931V164.75H34.6207H30.2931V87.0864C30.2931 44.263 62.3346 9.42258 101.724 9.42258H149.276C188.665 9.42258 220.707 44.263 220.707 87.0864V164.75H216.379Z" fill="black"/>
<path d="M104.693 67.0492C94.5621 78.0587 78.0956 78.0493 67.9734 67.0492C66.2813 65.2088 63.5463 65.2088 61.8542 67.0492C60.9541 68.0283 60.5689 69.3274 60.6295 70.6124H60.5862V94.1469H69.2414V79.7814C74.5254 83.0433 80.4239 84.7142 86.331 84.7142C95.1982 84.7142 104.065 81.0428 110.812 73.7048C112.504 71.8644 112.504 68.8896 110.812 67.0492C109.12 65.2088 106.385 65.2136 104.693 67.0492Z" fill="black"/>
<path d="M182.59 67.0492C172.459 78.0587 155.992 78.0493 145.87 67.0492C144.178 65.2088 141.443 65.2088 139.751 67.0492C138.059 68.8896 138.059 71.8644 139.751 73.7048C146.502 81.0476 155.365 84.7142 164.228 84.7142C168.72 84.7142 173.212 83.7634 177.431 81.876V89.44H186.086V76.2842C186.991 75.484 187.869 74.6226 188.709 73.7048C190.401 71.8644 190.401 68.8896 188.709 67.0492C187.021 65.2088 184.282 65.2136 182.59 67.0492Z" fill="black"/>
<path d="M69.2414 103.561H60.5862V117.681H69.2414V103.561Z" fill="black"/>
<path d="M186.086 98.8535H177.431V122.388H186.086V98.8535Z" fill="black"/>
</svg>
