<svg width="379" height="326" viewBox="0 0 379 326" fill="none" xmlns="http://www.w3.org/2000/svg">
<path d="M362.929 215.238C346.465 194.406 345.296 141.12 345.286 140.58C345.28 140.391 345.265 140.203 345.239 140.019C338.081 88.723 317.66 50.6996 284.554 27.0057C246.999 0.132443 204.67 -0.100679 189.37 0.851641C174.09 -0.105639 131.75 0.117564 94.1797 27.0057C61.0734 50.6947 40.6531 88.718 33.49 140.019C33.4638 140.208 33.4481 140.396 33.4428 140.585C33.4324 141.12 32.2638 194.406 15.7998 215.238C-0.543795 235.911 -4.01792 258.92 6.2682 278.359C16.4233 297.559 37.8916 309.483 62.2943 309.483C64.3798 309.483 66.2714 308.312 67.0994 306.497C67.9325 304.681 67.5448 302.573 66.1195 301.13C65.9675 300.981 54.0308 288.68 55.7967 274.941C62.9493 288.785 78.7898 309.483 109.454 309.483C111.687 309.483 113.667 308.143 114.396 306.155C115.134 304.166 114.453 301.948 112.708 300.639C112.493 300.475 91.1614 284.251 89.8672 267.655C89.6366 264.719 90.0977 261.976 91.1929 259.372C111.173 296.299 147.135 325.652 189.254 325.652C232.327 325.652 267.021 298.134 286.629 262.447C287.923 265.239 288.484 268.136 288.17 271.216C286.587 286.458 266.418 300.356 266.214 300.495C264.364 301.755 263.584 303.997 264.286 306.045C264.983 308.094 266.995 309.483 269.269 309.483C301.076 309.483 316.429 289.251 323.225 275.353C326.469 290.278 315.947 300.465 315.412 300.976C313.992 302.296 313.479 304.25 314.087 306.04C314.695 307.826 316.319 309.135 318.284 309.423C320.878 309.8 323.456 309.984 326.008 309.984C343.735 309.984 360.073 301.066 369.867 285.615C380.336 269.079 384.02 241.913 362.929 215.238ZM189.259 315.727C148.927 315.727 114.794 285.645 97.3289 248.99C97.308 247.746 96.784 246.53 95.7831 245.583C88.7615 229.756 84.8158 212.867 84.8158 196.742V192.903C106.447 188.717 113.845 158.406 120.427 131.439C124.849 113.335 129.419 94.6204 137.153 88.3113C142.844 83.6737 148.387 81.5955 153.654 82.1609C161.655 83.0091 166.937 89.6604 166.974 89.7051C167.959 90.9897 169.526 91.7536 171.208 91.7585C171.213 91.7585 171.218 91.7585 171.223 91.7585C172.89 91.7585 174.462 91.0046 175.452 89.7299C175.531 89.6257 183.742 79.5272 193.399 80.5688C201.93 81.5012 210.403 90.8062 217.907 107.477C225.379 124.083 232.804 138.844 240.59 151.308H216.434C213.536 151.308 211.194 153.53 211.194 156.268C211.194 159.006 213.536 161.228 216.434 161.228H247.209C260.66 179.828 275.484 191.38 293.703 193.146V196.742C293.703 214.543 289.401 232.985 281.583 249.888C281.279 250.325 281.059 250.776 280.918 251.267C263.819 287.153 230.797 315.727 189.259 315.727ZM360.875 280.511C353.617 291.969 341.943 298.948 329.099 299.94C334.696 290.273 337.944 275.293 327.318 258.965C326.191 257.229 324.053 256.326 321.947 256.688C319.83 257.041 318.153 258.588 317.718 260.577C317.425 261.921 311.252 288.914 285.387 297.177C291.471 290.669 297.586 281.9 298.597 272.208C299.373 264.803 297.151 257.914 291.99 251.689C294.987 244.968 297.528 238.059 299.446 231.035C315.056 229.136 327.187 215.729 327.187 199.519V189.51C327.187 186.867 324.996 184.684 322.209 184.555L299.462 183.499C299.289 183.484 299.116 183.474 298.938 183.474C273.43 183.474 253.413 161.079 227.543 103.593C218.352 83.1678 207.269 72.107 194.604 70.7232C184.213 69.5873 175.856 75.2764 171.14 79.5321C167.629 76.5908 162.095 73.1188 154.958 72.3252C146.648 71.3977 138.348 74.2497 130.315 80.7969C119.971 89.224 115.234 108.647 110.214 129.211C103.999 154.646 96.9674 183.474 79.5706 183.474C79.5286 183.474 79.4972 183.494 79.4605 183.494C79.4186 183.499 79.3819 183.474 79.3452 183.479L53.0404 184.555C50.237 184.669 48.0258 186.857 48.0258 189.51V199.529C48.0258 217.018 62.158 231.249 79.5391 231.263C81.2474 237.057 83.3591 242.795 85.8324 248.425C81.0011 254.387 78.8422 261.093 79.4134 268.409C80.2884 279.485 87.4463 289.821 94.1482 297.217C68.9176 288.973 61.3196 261.718 60.9581 260.359C60.455 258.479 58.8464 257.046 56.8342 256.693C54.8587 256.356 52.7837 257.12 51.5994 258.702C41.1404 272.699 45.128 288.011 51.3846 298.595C35.6541 295.763 22.465 286.84 15.6321 273.91C7.19044 257.953 10.3082 238.728 24.189 221.17C42.1936 198.394 43.8023 145.927 43.9176 141.036C50.7244 92.6711 69.7246 56.9889 100.384 34.9913C130.309 13.5244 164.322 10.5088 181.855 10.5931C182.799 11.0643 186.681 10.9899 189.286 10.8212C192 10.9899 195.998 11.0643 196.952 10.5732C214.464 10.479 248.299 13.4947 278.235 34.9169C308.962 56.9096 327.999 92.6116 334.811 141.041C334.921 145.932 336.54 198.399 354.54 221.175C372.518 243.921 369.599 266.737 360.875 280.511ZM301.914 220.356C303.408 212.48 304.183 204.554 304.183 196.747V193.647L316.712 194.232V199.515C316.707 209.291 310.471 217.584 301.914 220.356ZM76.9872 221.071C66.6068 219.731 58.5162 210.635 58.5162 199.524V194.257L74.341 193.607V196.742C74.3358 204.742 75.2685 212.916 76.9872 221.071Z" fill="black"/>
<path d="M157.07 161.437C159.968 161.437 162.31 159.215 162.31 156.477C162.31 153.739 159.968 151.517 157.07 151.517H121.842C118.944 151.517 116.602 153.739 116.602 156.477C116.602 159.215 118.944 161.437 121.842 161.437H157.07Z" fill="black"/>
<path d="M257.044 186.708C252.124 182.055 245.249 179.412 237.709 179.248C237.667 179.248 237.625 179.248 237.593 179.248C237.289 179.248 237.033 179.357 236.744 179.407C236.456 179.362 236.199 179.248 235.906 179.248C224.394 179.248 215.03 188.112 215.03 199.009C215.03 208.656 221.244 216.21 230.855 218.244C231.242 218.328 231.625 218.363 232.007 218.363C232.159 218.363 232.306 218.303 232.458 218.288C232.751 218.308 233.045 218.358 233.333 218.358C239.558 218.358 245.071 214.107 246.145 208.11C246.884 203.974 245.375 199.812 242.105 196.99C239.977 195.145 236.661 195.274 234.706 197.302C232.751 199.321 232.893 202.461 235.036 204.306C235.665 204.852 235.953 205.655 235.806 206.459C235.581 207.758 234.313 208.646 232.903 208.413C232.846 208.403 232.793 208.428 232.741 208.418C228.229 207.282 225.51 203.83 225.51 199.014C225.51 193.587 230.179 189.173 235.906 189.173C236.199 189.173 236.451 189.059 236.734 189.014C236.985 189.059 237.211 189.168 237.478 189.173C242.32 189.277 246.643 190.899 249.656 193.736C252.826 196.732 254.44 200.923 254.319 205.868C254.209 210.228 252.318 214.285 248.985 217.301C245.652 220.317 241.235 221.969 236.676 221.81C235.922 221.795 235.214 221.929 234.57 222.177C229.235 222.455 224.399 220.659 221.192 217.073C219.337 214.98 216.025 214.702 213.809 216.488C211.598 218.253 211.32 221.383 213.191 223.476C218.221 229.111 225.51 232.161 233.464 232.161C235.639 232.161 237.866 231.933 240.108 231.467C240.114 231.467 240.114 231.462 240.119 231.462C246.134 230.842 251.773 228.496 256.221 224.473C261.577 219.632 264.626 213.105 264.799 206.101C264.977 198.364 262.3 191.658 257.044 186.708Z" fill="black"/>
<path d="M165.056 224.468C170.411 219.627 173.461 213.1 173.634 206.097C173.817 198.364 171.14 191.658 165.884 186.708C160.963 182.055 154.089 179.412 146.548 179.248C146.506 179.248 146.464 179.248 146.433 179.248C146.129 179.248 145.872 179.357 145.584 179.407C145.296 179.362 145.039 179.248 144.746 179.248C133.233 179.248 123.87 188.112 123.87 199.009C123.87 208.656 130.084 216.21 139.694 218.244C140.082 218.328 140.465 218.363 140.847 218.363C140.999 218.363 141.146 218.303 141.298 218.288C141.591 218.308 141.885 218.358 142.173 218.358C148.398 218.358 153.91 214.107 154.985 208.11C155.723 203.974 154.214 199.812 150.945 196.99C148.817 195.145 145.5 195.274 143.546 197.302C141.591 199.321 141.733 202.461 143.876 204.306C144.505 204.852 144.793 205.655 144.646 206.459C144.421 207.758 143.142 208.646 141.743 208.413C141.686 208.403 141.633 208.428 141.581 208.418C137.069 207.282 134.35 203.83 134.35 199.014C134.35 193.587 139.018 189.173 144.746 189.173C145.039 189.173 145.291 189.059 145.574 189.014C145.825 189.059 146.05 189.168 146.318 189.173C151.159 189.277 155.482 190.899 158.495 193.736C161.666 196.732 163.28 200.923 163.159 205.868C163.049 210.228 161.157 214.285 157.825 217.301C154.497 220.312 150.106 221.969 145.516 221.81C144.772 221.795 144.075 221.929 143.43 222.177C138.086 222.46 133.239 220.659 130.032 217.073C128.177 214.98 124.865 214.702 122.649 216.488C120.437 218.253 120.16 221.383 122.03 223.476C127.061 229.111 134.35 232.161 142.304 232.161C144.478 232.161 146.705 231.933 148.948 231.467C148.953 231.467 148.953 231.462 148.959 231.462C154.974 230.837 160.607 228.491 165.056 224.468Z" fill="black"/>
<path d="M234.072 267.02L216.146 257.308C214.668 256.51 212.866 256.44 211.315 257.125L191.707 265.849L172.098 257.125C170.464 256.401 168.535 256.525 167.01 257.457L151.259 267.169C148.833 268.667 148.146 271.737 149.729 274.033C151.306 276.33 154.555 276.97 156.981 275.482L170.285 267.278L189.48 275.819C190.884 276.449 192.529 276.449 193.934 275.819L213.306 267.203L228.863 275.635C229.686 276.082 230.582 276.29 231.462 276.29C233.281 276.29 235.052 275.392 236.016 273.795C237.457 271.414 236.587 268.379 234.072 267.02Z" fill="black"/>
</svg>
