<svg width="45" height="45" viewBox="0 0 45 45" fill="none" xmlns="http://www.w3.org/2000/svg">
<g clip-path="url(#clip0_214_716)">
<path d="M9.80684 30.9019C9.43527 30.9019 9.07893 31.0495 8.81619 31.3122C8.55346 31.5749 8.40585 31.9313 8.40585 32.3028V35.1048C8.40585 35.4764 8.55346 35.8327 8.81619 36.0954C9.07893 36.3582 9.43527 36.5058 9.80684 36.5058H12.6088C12.9804 36.5058 13.3367 36.3582 13.5994 36.0954C13.8622 35.8327 14.0098 35.4764 14.0098 35.1048V32.3028C14.0098 31.9313 13.8622 31.5749 13.5994 31.3122C13.3367 31.0495 12.9804 30.9019 12.6088 30.9019H9.80684ZM19.6137 32.3028C19.6137 31.9313 19.7613 31.5749 20.0241 31.3122C20.2868 31.0495 20.6431 30.9019 21.0147 30.9019H23.8167C24.1882 30.9019 24.5446 31.0495 24.8073 31.3122C25.07 31.5749 25.2176 31.9313 25.2176 32.3028V35.1048C25.2176 35.4764 25.07 35.8327 24.8073 36.0954C24.5446 36.3582 24.1882 36.5058 23.8167 36.5058H21.0147C20.6431 36.5058 20.2868 36.3582 20.0241 36.0954C19.7613 35.8327 19.6137 35.4764 19.6137 35.1048V32.3028ZM32.2226 30.9019C31.851 30.9019 31.4946 31.0495 31.2319 31.3122C30.9692 31.5749 30.8216 31.9313 30.8216 32.3028V35.1048C30.8216 35.4764 30.9692 35.8327 31.2319 36.0954C31.4946 36.3582 31.851 36.5058 32.2226 36.5058H35.0245C35.3961 36.5058 35.7524 36.3582 36.0152 36.0954C36.2779 35.8327 36.4255 35.4764 36.4255 35.1048V32.3028C36.4255 31.9313 36.2779 31.5749 36.0152 31.3122C35.7524 31.0495 35.3961 30.9019 35.0245 30.9019H32.2226Z" fill="black"/>
<path d="M39.2275 2.88281C40.7138 2.88281 42.1391 3.47322 43.1901 4.52417C44.241 5.57511 44.8314 7.00049 44.8314 8.48674V36.5064C44.8314 37.9926 44.241 39.418 43.1901 40.469C42.1391 41.5199 40.7138 42.1103 39.2275 42.1103H5.60393C4.11768 42.1103 2.69229 41.5199 1.64135 40.469C0.590412 39.418 0 37.9926 0 36.5064V8.48674C0 7.00049 0.590412 5.57511 1.64135 4.52417C2.69229 3.47322 4.11768 2.88281 5.60393 2.88281H39.2275ZM5.60393 39.3084H39.2275C39.9706 39.3084 40.6833 39.0131 41.2088 38.4877C41.7343 37.9622 42.0295 37.2495 42.0295 36.5064V14.0907H2.80196V36.5064C2.80196 37.2495 3.09717 37.9622 3.62264 38.4877C4.14811 39.0131 4.8608 39.3084 5.60393 39.3084ZM5.60393 5.68478C4.8608 5.68478 4.14811 5.97998 3.62264 6.50545C3.09717 7.03092 2.80196 7.74362 2.80196 8.48674V11.2887H42.0295V8.48674C42.0295 7.74362 41.7343 7.03092 41.2088 6.50545C40.6833 5.97998 39.9706 5.68478 39.2275 5.68478H5.60393Z" fill="black"/>
</g>
<defs>
<clipPath id="clip0_214_716">
<rect width="44.8314" height="44.8314" fill="white" transform="translate(0 0.0800781)"/>
</clipPath>
</defs>
</svg>
